<svg xmlns="http://www.w3.org/2000/svg" viewBox="0 0 100 30" fill="currentColor">
  <path d="M12.9 20.3c-.9 0-1.7-.1-2.4-.4-.7-.3-1.4-.7-1.9-1.2-.5-.5-1-1.2-1.3-2-.3-.8-.4-1.7-.4-2.7 0-.9.1-1.8.4-2.6.3-.8.8-1.5 1.4-2 1.1-1 2.5-1.5 4-1.5 1.5 0 2.8.5 3.9 1.5.5.5.9 1.1 1.2 1.9.3.8.4 1.7.4 2.7h-8.8c.1.7.3 1.3.8 1.8.4.4.9.7 1.5.7 1.2 0 2.1-.5 2.5-1.4h2.5c-.3.9-.9 1.7-1.6 2.3-.6.6-1.4 1-2.2 1.2zM15 12h-5.8c-.1-1.1.4-1.9 1.4-2.3 1-.4 2.1-.2 2.9.4.9.5 1.4 1.2 1.5 1.9zm13.1 8h-2.3v-.8c-.7.6-1.5 1-2.4 1-1.2 0-2.2-.4-2.8-1.1-.6-.8-1-1.8-1-3.2v-5.6h2.4v4.9c0 1 .2 1.7.5 2.1.4.4.9.6 1.4.6.6 0 1.2-.2 1.6-.7.4-.5.6-1.1.6-2v-4.9h2.4v9.7h-.4zm9.3 0h-2.3v-.8c-.7.6-1.5 1-2.4 1-1.2 0-2.2-.4-2.8-1.1-.6-.8-1-1.8-1-3.2v-5.6h2.4v4.9c0 1 .2 1.7.5 2.1.4.4.9.6 1.4.6.6 0 1.2-.2 1.6-.7.4-.5.6-1.1.6-2v-4.9h2.4v9.7h-.4zm7.9 0h-2.3V11h-1.6V9h1.6V6.1h2.4V9h3.7v2h-3.7v9h-.1zm5-1.7c-.5-.5-1-1.2-1.3-2-.3-.8-.4-1.7-.4-2.7 0-.9.1-1.8.4-2.6.3-.8.8-1.5 1.4-2 1.1-1 2.5-1.5 4-1.5 1.5 0 2.8.5 3.9 1.5.5.5.9 1.1 1.2 1.9.3.8.4 1.7.4 2.7h-8.8c.1.7.3 1.3.8 1.8.4.4.9.7 1.5.7 1.2 0 2.1-.5 2.5-1.4h2.5c-.3.9-.9 1.7-1.6 2.3-.6.6-1.4 1-2.2 1.2-.9.1-1.7 0-2.4-.4zm8-6.6H50c-.1-1.1.4-1.9 1.4-2.3 1-.4 2.1-.2 2.9.4.9.5 1.4 1.2 1.5 1.9zm13.5 8.2h-2.4v-4.6c0-1-.2-1.7-.6-2.1-.4-.4-.9-.6-1.5-.6-.6 0-1.1.2-1.6.6-.4.5-.7 1.2-.7 2.1v4.6h-2.4v-9.6h2.3v.9c.7-.7 1.5-1 2.5-1 1.2 0 2.1.4 2.7 1.1.6.8.9 1.8.9 3.2v5.4h.8zm9.5-6.5c0 .9-.1 1.7-.4 2.5-.3.8-.7 1.5-1.3 2-.6.5-1.3.9-2 1.2-.8.3-1.6.4-2.4.4-.8 0-1.6-.1-2.4-.4-.8-.3-1.4-.7-2-1.2-.6-.5-1-1.2-1.3-2-.3-.8-.4-1.7-.4-2.5 0-.9.1-1.7.4-2.5.3-.8.8-1.5 1.3-2 .6-.5 1.3-.9 2-1.2s1.6-.4 2.4-.4c.8 0 1.6.1 2.4.4.8.3 1.4.7 2 1.2.6.5 1 1.2 1.3 2 .3.8.4 1.6.4 2.5zm-2.4 0c0-1.4-.4-2.5-1.1-3.2-.8-.7-1.7-1.1-2.9-1.1s-2.1.4-2.9 1.1c-.7.7-1.1 1.8-1.1 3.2 0 1.4.4 2.5 1.1 3.2.7.7 1.7 1.1 2.9 1.1s2.1-.4 2.9-1.1c.7-.7 1.1-1.8 1.1-3.2zm11.3 6.5h-2.3v-.8c-.7.6-1.5 1-2.4 1-1.2 0-2.2-.4-2.8-1.1-.6-.8-1-1.8-1-3.2v-5.6h2.4v4.9c0 1 .2 1.7.5 2.1.4.4.9.6 1.4.6.6 0 1.2-.2 1.6-.7.4-.5.6-1.1.6-2v-4.9h2.4v9.7h-.4zM70.3 3.4c0 .8-.3 1.5-.8 2s-1.2.8-2 .8c-.8 0-1.5-.3-2-.8-.5-.5-.8-1.2-.8-2s.3-1.5.8-2c.5-.5 1.2-.8 2-.8.8 0 1.5.3 2 .8.5.5.8 1.2.8 2zm.8 16.6h-5.6V6h5.6v14zm19.6-13h-2.3v-.8c-.7.6-1.5 1-2.4 1-1.2 0-2.2-.4-2.8-1.1-.6-.8-1-1.8-1-3.2v-5.6h2.4v4.9c0 1 .2 1.7.5 2.1.4.4.9.6 1.4.6.6 0 1.2-.2 1.6-.7.4-.5.6-1.1.6-2v-4.9h2.4v9.7h-.4zM16.9 23c1.7 1 3.8 2 5.9 2 4.1 0 5.4-2 5.4-3.5 0-2.2-2.1-3-4.7-3.6-2.1-.5-3.3-1.1-3.3-2.3 0-1.2 1.2-2.1 3.2-2.1 2.1 0 3.7.8 4.9 1.5l1-2.6C28.2 11.5 26.5 11 24.6 11c-3.1 0-5.7 1.4-5.7 4 0 2.3 2 3.1 4.5 3.6 2.3.5 3.5 1.2 3.5 2.4 0 .9-.9 1.8-2.9 1.8-2 0-4.3-.9-5.9-2l-1.2 2.2z"/>
  <path fill="#FF9900" d="M46.7 28.3c-6 3.1-13.8 4.5-20.9 4.5-9.6 0-18.7-2.6-25-7 .3-.5 1-1.1 1.5-.7 6 4.1 14.6 6.5 23.5 6.5 6.9 0 14.1-1.3 19.8-4.2.4-.2.9-.6 1.4-.4.5.3.3.9-.3 1.3zm1.6-4.6c-1.3-.2-3.1 1.4-3.5 1.8-.4.4-.2 1 .3 1.3.4.2 1.3.5 1.9.3s2.9-2.1 2.7-2.4c-.2-.4-.9-.8-1.4-1z"/>
</svg>
