<svg width="30" height="30" viewBox="0 0 30 30" fill="none" xmlns="http://www.w3.org/2000/svg">
<path d="M15 13.75H15.0125V13.7625H15V13.75Z" stroke="black" stroke-width="3.5" stroke-linejoin="round"/>
<path d="M15 27.5L21.875 20.625C23.2347 19.2653 24.1606 17.5329 24.5357 15.6469C24.9108 13.7609 24.7183 11.8061 23.9824 10.0296C23.2465 8.25303 22.0003 6.73461 20.4015 5.66631C18.8026 4.59801 16.9229 4.0278 15 4.0278C13.0771 4.0278 11.1974 4.59801 9.59851 5.66631C7.99967 6.73461 6.75351 8.25303 6.01762 10.0296C5.28174 11.8061 5.08917 13.7609 5.46428 15.6469C5.83939 17.5329 6.76533 19.2653 8.125 20.625L15 27.5Z" stroke="black" stroke-width="3.5" stroke-linejoin="round"/>
</svg>
