<svg width="24" height="22" viewBox="0 0 24 22" fill="none" xmlns="http://www.w3.org/2000/svg">
<path fill-rule="evenodd" clip-rule="evenodd" d="M3.43271 9.43685C3.43271 7.76831 4.15575 6.16811 5.44278 4.98828C6.7298 3.80844 8.47538 3.14562 10.2955 3.14562C12.1156 3.14562 13.8612 3.80844 15.1482 4.98828C16.4353 6.16811 17.1583 7.76831 17.1583 9.43685C17.1583 11.1054 16.4353 12.7056 15.1482 13.8854C13.8612 15.0653 12.1156 15.7281 10.2955 15.7281C8.47538 15.7281 6.7298 15.0653 5.44278 13.8854C4.15575 12.7056 3.43271 11.1054 3.43271 9.43685ZM10.2955 1.78453e-07C8.67537 -0.00018935 7.07807 0.350174 5.63351 1.0226C4.18894 1.69502 2.9379 2.67051 1.98213 3.86973C1.02636 5.06896 0.392858 6.45805 0.133137 7.92404C-0.126584 9.39003 -0.00518568 10.8915 0.487458 12.3064C0.980102 13.7213 1.83008 15.0096 2.96826 16.0665C4.10645 17.1235 5.5007 17.9192 7.03762 18.3891C8.57454 18.8589 10.2107 18.9896 11.8131 18.7704C13.4155 18.5513 14.9389 17.9885 16.2593 17.1279L21.0924 21.5585C21.416 21.845 21.8494 22.0035 22.2992 21.9999C22.7491 21.9964 23.1794 21.8309 23.4975 21.5393C23.8156 21.2477 23.996 20.8532 23.9999 20.4409C24.0038 20.0285 23.8309 19.6312 23.5184 19.3345L18.687 14.9055C19.7821 13.4937 20.4321 11.8328 20.5659 10.1048C20.6996 8.37679 20.3119 6.64838 19.4453 5.10896C18.5786 3.56953 17.2664 2.27851 15.6525 1.37735C14.0386 0.476184 12.1852 -0.000336661 10.2955 1.78453e-07Z" fill="black"/>
</svg>
