<svg width="30" height="30" viewBox="0 0 30 30" fill="none" xmlns="http://www.w3.org/2000/svg">
<path d="M6.25 11.25C6.25 8.92936 7.17187 6.70376 8.81282 5.06282C10.4538 3.42187 12.6794 2.5 15 2.5C17.3206 2.5 19.5462 3.42187 21.1872 5.06282C22.8281 6.70376 23.75 8.92936 23.75 11.25V12.5437C25.87 12.8475 27.5 14.6712 27.5 16.875V17.1875C27.5 19.4062 25.5862 21.3512 23.335 21.2475C22.41 23.8975 20.0575 25.6838 17.5188 26.1363C16.9313 26.3513 16.2362 26.25 15.625 26.25C15.1277 26.25 14.6508 26.0525 14.2992 25.7008C13.9475 25.3492 13.75 24.8723 13.75 24.375C13.75 23.8777 13.9475 23.4008 14.2992 23.0492C14.6508 22.6975 15.1277 22.5 15.625 22.5C16.6162 22.5 17.7137 22.3562 18.3837 23.2612C20.0037 22.49 21.25 20.8613 21.25 18.75V11.25C21.25 9.5924 20.5915 8.00269 19.4194 6.83058C18.2473 5.65848 16.6576 5 15 5C13.3424 5 11.7527 5.65848 10.5806 6.83058C9.40848 8.00269 8.75 9.5924 8.75 11.25V19.0625C8.75 19.6427 8.51953 20.1991 8.1093 20.6093C7.69906 21.0195 7.14266 21.25 6.5625 21.25C5.48506 21.25 4.45175 20.822 3.68988 20.0601C2.92801 19.2983 2.5 18.2649 2.5 17.1875V16.875C2.49973 15.8228 2.8787 14.8057 3.56744 14.0102C4.25619 13.2147 5.20856 12.6941 6.25 12.5437V11.25Z" fill="black"/>
</svg>
