<svg width="54" height="54" viewBox="0 0 54 54" fill="none" xmlns="http://www.w3.org/2000/svg">
<g clip-path="url(#clip0_250_387)">
<path d="M34.5 39C34.5 39.3978 34.342 39.7794 34.0607 40.0607C33.7794 40.342 33.3978 40.5 33 40.5H12C11.67 40.5 11.355 40.8 11.085 40.995L6 45V21C6 20.6022 6.15804 20.2206 6.43934 19.9393C6.72064 19.658 7.10218 19.5 7.5 19.5H13.29V16.5H7.5C6.30653 16.5 5.16193 16.9741 4.31802 17.818C3.47411 18.6619 3 19.8065 3 21V48C3.00223 48.2786 3.082 48.551 3.23036 48.7868C3.37873 49.0226 3.58983 49.2124 3.84 49.335C4.08102 49.4446 4.34675 49.4885 4.61021 49.4621C4.87367 49.4358 5.12546 49.3402 5.34 49.185L13.065 43.5H33.225C33.7935 43.5168 34.3594 43.4167 34.8877 43.2059C35.4159 42.9951 35.8953 42.6781 36.2961 42.2746C36.6968 41.871 37.0105 41.3894 37.2176 40.8597C37.4247 40.33 37.5208 39.7634 37.5 39.195V37.5H34.5V39Z" fill="black" stroke="black" stroke-width="2"/>
<path d="M46.5 6H21C19.8065 6 18.6619 6.47411 17.818 7.31802C16.9741 8.16193 16.5 9.30653 16.5 10.5V28.5C16.5 29.6935 16.9741 30.8381 17.818 31.682C18.6619 32.5259 19.8065 33 21 33H41.325L48.495 38.565C48.7082 38.7226 48.9592 38.8209 49.2227 38.8499C49.4862 38.8788 49.7527 38.8375 49.995 38.73C50.2503 38.6084 50.466 38.4172 50.6172 38.1783C50.7685 37.9395 50.8492 37.6627 50.85 37.38V10.5C50.8507 9.33207 50.3972 8.20963 49.5854 7.3699C48.7737 6.53017 47.6673 6.03893 46.5 6ZM48 34.41L42.75 30.315C42.4882 30.1118 42.1664 30.001 41.835 30H21C20.6022 30 20.2206 29.842 19.9393 29.5607C19.658 29.2794 19.5 28.8978 19.5 28.5V10.5C19.5 10.1022 19.658 9.72064 19.9393 9.43934C20.2206 9.15804 20.6022 9 21 9H46.5C46.901 9.03639 47.2748 9.21813 47.5511 9.51098C47.8273 9.80384 47.987 10.1876 48 10.59V34.41Z" fill="black" stroke="black" stroke-width="2"/>
</g>
<defs>
<clipPath id="clip0_250_387">
<rect width="54" height="54" fill="white"/>
</clipPath>
</defs>
</svg>
