<svg width="30" height="31" viewBox="0 0 30 31" fill="none" xmlns="http://www.w3.org/2000/svg">
<path d="M17.5363 1.69296C19.0946 1.28057 20.7353 1.28663 22.2902 1.71152H22.2892C22.6261 1.8004 22.9336 1.97633 23.1808 2.22128C23.4285 2.46664 23.6073 2.77283 23.6984 3.10898C23.7895 3.44525 23.7895 3.79978 23.6994 4.13632C23.6093 4.47286 23.4318 4.77981 23.1848 5.02597L19.6486 8.54941L20.2248 10.273L21.9562 10.8473L25.4933 7.32382C25.7405 7.07774 26.0486 6.90075 26.3859 6.81113C26.7233 6.72152 27.0791 6.72223 27.4162 6.81308L27.4152 6.82382C27.7427 6.91639 28.0411 7.09081 28.2814 7.33163C28.5277 7.57838 28.7049 7.88563 28.7941 8.22226C29.6001 11.2607 28.8514 14.6586 26.4367 17.0611C25.32 18.1763 23.9329 18.9851 22.4103 19.4088C20.8877 19.8325 19.2811 19.8564 17.7463 19.4791L17.7414 19.4781C17.7047 19.4684 17.6668 19.4666 17.6291 19.4693L8.86249 28.2047L8.86151 28.2057C7.98048 29.0811 6.78702 29.5728 5.54315 29.5728C4.29926 29.5728 3.1058 29.0812 2.22479 28.2057V28.2047C1.34599 27.3268 0.851808 26.1374 0.851746 24.8971C0.851746 23.6566 1.34593 22.4664 2.22479 21.5885L10.9904 12.8531C10.993 12.8161 10.9922 12.7788 10.9826 12.7428L10.9807 12.7379V12.7369C10.6038 11.2038 10.6308 9.59965 11.0578 8.07968C11.4849 6.55938 12.298 5.17446 13.4191 4.05917C14.5576 2.92163 15.9783 2.10532 17.5363 1.69296ZM19.5285 3.64902H19.5275C17.8695 3.71577 16.2277 4.38242 14.9543 5.65097C13.9755 6.63398 13.3115 7.88415 13.0441 9.24277C12.8549 10.2271 12.8795 11.2404 13.1164 12.2144V12.2154C13.2977 12.9668 13.167 13.8132 12.59 14.3883L3.76971 23.1764C3.31119 23.6381 3.05389 24.2615 3.05389 24.9107C3.05391 25.56 3.31116 26.1834 3.76971 26.6451L3.95721 26.8131C4.92527 27.5963 6.35794 27.5395 7.25409 26.6451L16.0734 17.857L16.0754 17.856C16.6234 17.3193 17.3988 17.1696 18.1115 17.3023L18.2531 17.3326C19.417 17.6161 20.6354 17.5968 21.7892 17.275C22.8407 16.9817 23.8045 16.444 24.6086 15.7125L24.6037 15.7096L24.8273 15.4869C26.0474 14.2734 26.7648 12.6471 26.8371 10.9312V10.9303C26.8624 10.3575 26.817 9.78508 26.7053 9.22324L23.3791 12.5377C23.1202 12.798 22.7933 12.9804 22.4357 13.065C22.0773 13.1498 21.7018 13.1334 21.3527 13.0162V13.0152L19.3566 12.3531C18.7648 12.157 18.3003 11.6937 18.1017 11.1021L17.4367 9.11288V9.11191C17.3214 8.76382 17.3049 8.39046 17.3898 8.03378C17.4748 7.67727 17.6575 7.35153 17.9172 7.09238L21.2414 3.7789C20.6781 3.66802 20.1032 3.62405 19.5285 3.64902Z" fill="black" stroke="black" stroke-width="0.5"/>
</svg>
