<?xml version="1.0" encoding="UTF-8"?>
<svg id="layer" xmlns="http://www.w3.org/2000/svg" version="1.1" viewBox="0 0 598.5 233">
  <!-- Generator: Adobe Illustrator 30.0.0, SVG Export Plug-In . SVG Version: 2.1.1 Build 123)  -->
  <defs>
    <style>
      .st0, .st1, .st2, .st3, .st4, .st5 {
        stroke: #000;
      }

      .st0, .st5 {
        stroke-width: .65px;
      }

      .st6, .st5 {
        fill: #ffcb05;
      }

      .st7, .st1, .st2, .st3 {
        fill: #fff;
      }

      .st1 {
        stroke-width: 1.88px;
      }

      .st8, .st4 {
        fill: none;
      }

      .st2 {
        stroke-width: 1.89px;
      }

      .st3 {
        stroke-width: 1.92px;
      }

      .st4 {
        stroke-width: 6.52px;
      }

      .st9 {
        fill: #d5ab81;
      }

      .st10 {
        fill: #f2e4d5;
      }

      .st11 {
        fill: #ed1c24;
      }
    </style>
  </defs>
  <g id="Layer_2">
    <path d="M13,224.5l24.4-54.4h18.3l5.9,54.5h-13.7l-1.1-14.4-15-.3-5.5,14.7h-13.3v-.1ZM35.1,202l11.1.2-1-26.2-10.1,26Z"/>
    <path class="st7" d="M300.9,207.5c48.4,0,87.5-39.2,87.5-87.5s-39.2-87.5-87.5-87.5-87.5,39.2-87.5,87.5,39.2,87.5,87.5,87.5Z"/>
    <path class="st0" d="M384.6,147.2s-4.3,15.5-14.4,27.5c-10.2,12-14,14.7-14,14.7l-14.7,10.6-20.2,7.4-16.1,1.9-16.2-.5.5-.1-.5.1s-20.2-2.5-34.5-11.8l-3.1.7s-12.3,3.7-19.7,4.3c-7.5.5-9.2,1.9-19.9-1.6-10.8-3.5-12.7-3.4-12.7-3.4,0,0-13-2.1-16.3-3.2s-6.8-1.1-5.5-9.7,10.2-28.9,12.7-32.1c2.5-3.3,6.9-10,15.9-17.8,0,0,4.7-4.2,8.1-12.9,3.3-8.3,6.6-11.8,8.2-14.1,1.6-2.2,1.9-3.7,2.8-4.8.9-1.1,4.7-4.7,13-4.9,8.2-.2,8.6,1.7,17.6-1.2l7.5-2.1-2.8-2.7v3.4l-5-4.3-.5,3s-4.6-2.6-5.8-6.8c0,0-2.5,3.3-2.2,4,0,0-4.9-5-2.9-14.7,0,0-1.8,1.5-1.9,2.2,0,0-3.1-2.5,3.1-13.3l-3.1.9s4-11.9,15.1-8.8l.2-2.3s3.2.4,4.4,2.2c0,0-1.2-7.8,2-8.8,0,0-11.1-6.4,8-9.9,0,0,9.5-26.1,29.8-26.3,0,0,10.6-9.4,15.8,1.3,0,0,9.8-.3,20.1,21.8,0,0,5.3,11.6,5.9,24,0,0,8.5-3,13.9,2.1,0,0-7.5,2.2-7.7,2.7,0,0,7.7,2.2,9.4,9.3,0,0-3.6-1.6-4.8-1.6,0,0,4.3,8.1.4,14.6,0,0-1.6-1.8-2.1-2.3,0,0,.3,4.8-5.5,11.6l-.4-5.3s-2.9,6.8-10.9,10.3c0,0,2.7,3.6,3.1,6.2,0,0,7.9,6.1,9.2,6.2,0,0,.3-.2.3-.6s-.1-2.8,1.4-4.5,2.6-2.8,2.6-2.8c0,0-.2-2,2.6-3.4l.9-15.8,2.9-3.5,1.7,4-1.2,16.1s2.1,0,2.5,1.9c0,0,2.6,3.8,2.6,6s.1,6.7.1,6.7c0,0,6.6,3.9,8.2,5,1.7,1.1,7.2,5,8.1,6.4,0,0,1,3.4,1.8,9.5.9,6.1,1.7,7.9,1.7,7.9l.5,1.4Z"/>
    <path class="st8" d="M319.1,181.3s.4-1.2,1.4-.7c1,.4,1.4,1.1,1.4,2.1,0,1.1.1,3-.9,3.7s-2.6.6-2.8-.9c0-1.6,0-2.9.9-4.2Z"/>
    <g>
      <path class="st9" d="M272.4,183.8s.2-1.3.9-.3c.6.9,1.7,2.9,2.2,4.9.5,1.9,1.5,6,2,7.7s.9,2.6.9,2.6c0,0,.6.2,1.2,1.1.5.9,2.7,5.2,2.7,5.3,0,.2-.2.2-.4.1-.3-.1-10.6-2.5-14.3-4.5,0,0-.7-1.9-.3-2.7.3-.7.9-2.3,1.8-3.8,1-1.4,2.3-4.7,2.8-6.9.2-2.5.5-3.5.5-3.5Z"/>
      <path class="st9" d="M335.2,190.2s-.4.7-1.2.2c-.6-.5-4.5-4-5.8-9.1-1.3-5-1.6-6.7-1.1-8,0,0,.6-2.6,1.8-4.2,0,0,.9-1.1.7-1.3-.1-.2,0-1.1-.4-.7-.4.2-1.2.7-1.4.6-.2-.1-.2-.2-.3-.5-.1-.3-1.3-2.8-.4-6.7,0,0,.5-2.5,1.5-4.2l.5-.7s.1-1-.3-.6c-.4.3-2.1,1.3-2.5,2.7,0,0,.1,0-.3.1s-3.9.2-4.5-.2c-.5-.3-1.9-1.8-1.9-2.7v-1.8s-.9-1.7-1.2-.6c0,0,.2-.2.2,1.5v2.3s-.2.1-.4-.1c-.3-.2-.6-.5-.9-.1-.2.4-.1.1,0,.2s1.1,1,1.1,1l-1,.2-1.3-.7v-.9c0-.6-.3-2.7,1.3-4.6,1.6-1.9,2.9-.9,2.9-.9,0,0,.3.3,2.5.4,2,.1,5.9-.5,6.3-.3s1.6,1.1,1.9,2,1.5,3.7,2.5,4.8c1.1,1.2,1.8,1.6,1.1.6-.7-.9-1.5-2.5-1.6-3-.1-.4-.2-4.2-3.2-5.6,0,0-.7-.2-2.7,0s-5.1-.5-5.1-.5c0,0,.2-1.7,2.2-2.2,1.3-.4,2.5-.3,3.5,0,1.1.3,3.3.6,4.5.9,1.1.2,2.3.5,3,2,.5,1.4,1.1,3.3,2.7,5,1.7,1.7,3.4,4.2,3.1,3,0,0-1.1-1.7-1.6-2.6,0,0-1.2-1.7-1.4-2.8-.3-1-.6-3-1.6-3.9-.9-1-2.1-1.7-3.1-1.8-1-.1-3.1,0-3.3-.3-.3-.3.2-.4.2-.4,0,0,4.6-.5,6.6.2,2,.6,2.3,1.9,2.6,2.3.2.4,1.5,1.7,1.7,1.9.2.3.5.7.9,1.3,0,0,.2.5,2,2,1.9,1.5,3.7,3.4,3.6,6-.2,2.6-.7,3.4-.7,3.4,0,0,2,1.2,2.1,4.7.2,3.6,0,3.6-.7,8.5s.2,7.6.4,8.1v.2s-4.7,0-8.6,2.6c-4,2.3-4.9,3.3-4.9,3.3Z"/>
      <path class="st9" d="M259.7,74.6s.6.2,1.1,1.2c.4.9,1.9,4.3,5.6,7.4,2.9,2.5,6.5,2.6,8.1,3.1s2,1,1.7,4.2l-.6,1.9s-.2.7-1,1.1-2.8,1.4-4.2,1.4-1.7-.2-3-.5-2.8-.6-6-4.2c0,0-3-3.1-3.6-7.8,0,0-.6-2.6,0-4.4,1-1.8,1.9-3.4,1.9-3.4Z"/>
      <path class="st9" d="M277.4,87.9s-.5-1.3.4-1.7c1.1-.5,4-1.7,8.1-4.6,3.3-2.3,5.4-4.6,8-9.4,2.5-4.5,1.1-5.1.7-5.2-.2-.2-.4-.5-4.2-1.4-3.7-1-10.3-1.6-10.3-1.6,0,0,.6-3,5.3-7.7,0,0,1.9-1.1,3.7-.7,1.7.3,1.7.5,2.6,1.6l-.2.2-4.2-.1s-.9.2-.2.4c.6.2,5.2.6,6,1.5.7.9.5.9.5.9,0,0-6.3-.9-7.1-.5-.5.2-.9.4,0,.6s7.2,1.4,7.8,1.6c.5.2,1.1.5,1.1,1.2,0,0-.1.2-.4.1s-5.5-.6-7.2-.4c-1.4.2-.3.7.2.9s3.1,0,7.9,1.2c0,0,1.1.1,1.6.9.5.7,4.3,5.2,8.8,6.6,3.9,1.2,7.6-.2,10.6-2.7,2.8-2.5,2.5-4,2.5-4l2.3.6s.5-.4,1-.6c.3-.2,6.1-5.1,15.5-5.9,0,0,.1,0,0,.3-.2.3-3.8,3.4-3.9,4.3s-.1.7.9.3c.9-.4,3.4-2.3,7.4-3.4,3.9-1.1,6.4-1.8,11.2-.5,0,0,.2.2,0,.2s-7.9.6-9.5,3.7c0,0-.6.4.5.6s3.4,0,4.6.5,4.4,1.4,6.9,4.7c0,0,0,.3-.3.3-.3-.1-3.6-2.3-6.6-1.8,0,0-1,.1,0,.7s3.5,2,4.3,4.5c.9,2.5,2.2,6.5,1.2,10.9,0,0-2.5-5.8-4.2-6.8,0,0-.9-.6-.5.4.3,1.1,1.8,6.9-1.1,12.7,0,0-.6.6-.5.4,0-.2,1.1-4.8,0-7.1,0,0-.7-1.7-1.1.2-.3,1.8-1.3,5.9-5,9.4-3.7,3.4-6.2,5-9.6,6.2,0,0,4-2.8,4.8-4.7.6-1.9,1.1-2.5.9-3s-.1-1.2-.9-.3c-.7.9-4.8,5.2-11.6,7.1,0,0,3.2-4.6,3.2-5.2,0-.4.1-1.4-.9-1.1,0,0,.5.6-10,2.6,0,0-4.8.7-7.5,1.2-2.8.5-9.2,2-10.8,5.1-1.5,3.1-2.2,4.5,0,6.8,0,0,.3.2,0,.4-.3.1-2,1.4-4.7.3,0,0-2-1.1-1.9-.1.2.9,1.3,3.7,3.3,5.8,0,0-.4.2-1.1.2s-6.5,1.1-11.9-5.2c0,0-1.1-.9-1,.5,0,0,.9,3.7,3.9,6.6,0,0,.1.1-.2.1s-5-1.3-7.6-3.8c-2.6-2.6-2.5-1.9-3.9-6.2,0,0-.4-.7-.6.3-.2,1.1-1,2.9-1,4.2v3.2s-3.7-2.5-4.3-4.9c-.5-2.5-.6-3.6,0-5.5,0,0-.2-1.1-.5-.6-.3.4-2.1,3.3-2.1,3.8,0,0-.4.2-.3-.3,0-.5,0-5.3,1.8-7.6s3-3.3,3-3.3l11.8.9,6.2.9s1.4-.1.2-.7c-1.2-.5-5.1-2.1-5.1-2.1,0,0-3.8-1.4-5.8-4.9l-.9-3Z"/>
      <path class="st9" d="M258.5,56.3s.1,1,.3,1.5c.2.6.2,1.1.2,1.3-.1.3-.6,0-.9-.1-.2-.2-1.7-1.1-4.5-.9s-6.5,1.3-10,5.5c0,0-.3.5,1.1-.1s2.5-1.1,2.9-.9.7.1.4.5c-1.5,1.6-5.8,8.2-5.5,11.8l3.1-3.4s1-.3.7.4c-.3.7-1,2.5-1.1,4.5s-.9,7.5,1.1,11.5c0,0,1.6-4.4,1.6-5.2,0-.9.7-1,.7-1,0,0,.1.9.2,1.9,0,0,1.4,4.2,4.6,7.5v-3.5s.5-1.6,1-.1c0,0,.7,1.4,3.9,4.7l-.3-3.9s-3.4-4.5-2.7-9.9l.5-2.8s-2.8-1.1-3.7-2.6c0,0-1,2.8-.9,3.1,0,.3-.2,1.1-.9.3,0,0,.2-4.4,1.1-6.8,0,0,.1-1.2,1.2-2.2,1.2-1.1,2.8-2.2,3.1-2.2s1.7-.2.7.7l-.7.3s-2.2,2.6-2.1,3.6,2.1,4.8,2.7,5l2.3-2.8s0-.2-.1-.4c-.1-.2-1.3-3.9-1.2-5,0,0,1.3-1.2,5.9-2.2l.5-.3s-1.5-1.6-1.7-3.7-.6-2.3-1.3-2.8c-.6-.4-2.3-1.5-2.3-1.5v.2h.1Z"/>
      <path class="st9" d="M299.5,118.1s4.2.2,6.5-.6c0,0,.4-.4-.1-.7-.5-.3-1.7-.9-1.7-1.3q0-.3.6-.5c.5-.2,3.8-1.5,5.8-3.3,0,0,.5-.3-.1-.6-.6-.2-1.9-1.2-1.9-1.7,0,0,7.9-6.2,9.9-7.1,2.1-.9,3.5-1.6,4.2-1.5,0,0-.2,4.5,1.1,8.6s2.1,6.6,3,7.7,1.1,1.3,1.1,1.4c0,.2.1.5.3.5s.5,0,.5-.4c0-.3-1.2-2.8-1.5-4s-1.2-7.8-1.2-7.8c0,0,.2-.2.5.3s3.7,4.8,3.4,7.4c-.3,2.5-.9,5.5-1.7,6.4-.7.7-4.2,3.6-9.1,4.8-4.9,1.3-10.7,2.7-14.5,2.2l-.3-.3s-7.7-5-8.4-6.7c0,0,0-.3.2-.2s4,.2,4.7-.2c.6-.4.7-.5.2-.9-.5-.4-1-.4-1.5-1.5Z"/>
    </g>
    <path class="st10" d="M260.6,69.2s-.9-1.1-.6-1.2c.3-.2,3.4-1.7,8-2,0,0,7.1-1.6,13.6-.4,6.4,1.2,9,2.3,10.4,3.3,0,0-3-.1-3.2.2-.2.3-.2,1.3,0,1.9.1.6.1,1.7.1,1.7,0,0-6.6-2.3-8.6-2.9s-8.6-2.5-9.5-2.2c-1,.2-.5.4-.3.6.1.2,1.2,1.7,1.2,1.7l-.4.3c-.1,0-1.5-1.4-10.7-1Z"/>
    <g>
      <polygon class="st7" points="266.3 62.9 265.6 61.6 272.8 54.5 266.3 62.9"/>
      <polygon class="st7" points="266.5 63.6 269.7 60 270.4 60.6 270.9 60.5 282.9 49.7 270.2 64 266.9 64.2 266.5 63.6"/>
      <polygon class="st7" points="273.9 63.8 274.8 62.3 277.8 59.2 275 63.4 275 63.8 273.9 63.8"/>
      <polygon class="st7" points="286.2 53.2 289 48.6 290.8 48.5 286.2 53.2"/>
      <path class="st7" d="M297.3,60.8l13-9.7,3,.6-10.9,9s-.3,1.1,1,.2,13.5-8.4,13.5-8.4l.4.2-13.9,10.1s-.3,1.4.6.6,14.6-10.6,14.6-10.6l.5.2-18.1,13.2c.1,0-2.2-1.3-3.7-5.4Z"/>
      <path class="st7" d="M302.1,66.8l18.1-13.1.1.2-17.8,13.5c0-.1-.4.2-.4-.6Z"/>
      <path class="st7" d="M303.1,68l14.9-11.4-14.4,11.8c0-.1-.4.1-.5-.4Z"/>
      <path class="st7" d="M305.9,69.8l9.7-7.7-8.8,8c.1.1-.8.4-.9-.3Z"/>
      <path class="st7" d="M321.6,54.1s1.3.2,1.3.5,0,3.4-.2,4.3-.9,3.1-.9,3.1c0,0-.9.3-.9,0,.2-.3,1.5-4.6.7-7.9Z"/>
      <path class="st7" d="M324.8,55s0,4.7-.3,5.8l9.2-3.1c-.2-.1-8.8-2.4-8.9-2.7Z"/>
    </g>
    <path class="st7" d="M329.8,60.1"/>
    <path d="M320.3,181.6c.3,0,.6.3.6,1.3s-.6,2.6-1,2.6-.5-.9-.5-1.8c.1-1.2.6-2.1.9-2.1Z"/>
    <path class="st11" d="M350.2,178.1s1.8.2,4.4-.7c0,0,.2-.7.2.4.1,1.2-.6,4.2-2,6.6,0,0-1.4-1.1-2.9-.9,0,.1,0-1.3.3-5.4Z"/>
    <path class="st8" d="M296,158.1s7.5-.3,9.1.3,1.7.6,1.6,1.3q-.1.6-.7.6c-.5,0-1.1.1-1.1.1,0,0,.2-.9-.7-1.2-.9-.3-5.2-.6-8-.5l-.2-.6Z"/>
    <path d="M312.3,136.5"/>
    <path class="st7" d="M312.3,136.5s-.4.3,3.5-.9c3.9-1.2,9.4-3.2,9.4-3.2,0,0-1,4.5-1.5,4.9-.5.5-1.9,1.6-1.9,2.2-.1.6.1.6-.2,1.1-.3.4-2.2,5.9-2.9,7.5,0,0,.2.2-.5.6-.6.4-1.4.6-1.7,1.2-.3.6-.9,2.2-1.2,3.6h-.3s-.9-2.2-1.8-3c0,0-.4-4.4-1.3-5.6-.9-1.3-.2,0-.2,0l.6-8.4Z"/>
    <path class="st7" d="M312.5,135.4l-.1-.9s6.4-.2,12.9-3.8l.2.9s-7.5,3.5-13.2,3.8"/>
    <path class="st7" d="M312.6,133.6s.4-2.5-2.5-2.5c-2.9.1-5,.2-5,.2l-.3-1.4s7.1.1,13.2-1.9c6.1-1.9,4.2-.4,12.6-6.8l.1.2s-4.5,4.4-4.6,4.8.1,2.8-.3,3.1c-.3.3-7.1,4.1-13.2,4.3Z"/>
    <g>
      <path class="st7" d="M348.8,121.2l.3.4s-.9,2.5-.6,5.2l-1.8.4c-.1.1.8-5,2.1-6Z"/>
      <polygon class="st7" points="354.5 121.6 355.5 121.5 354.8 126.6 353.6 126.7 354.5 121.6"/>
      <path class="st7" d="M359.3,121.8s.7-.2.7.2c.1.3-.1,6.1-.1,6.1l-1.3-.4c.2,0,1.3-3.2.7-5.9Z"/>
      <path class="st7" d="M362.7,123.7l.6.2-.2,5-1-.6c.1,0,1-2.6.6-4.6Z"/>
      <path class="st7" d="M351.5,111.1l1.9-.1-.9,7.5-2.2.2c.1,0-.1-4.7,1.2-7.6Z"/>
      <path class="st7" d="M349.3,111.4h1.1s-1.4,6.7-1,7.6l-1.4.4c.1,0,.1-5,1.3-8Z"/>
      <path class="st7" d="M357.8,111.1s1.6.4,1.8.6c.1.3-.2,7.1-.2,7.1l-1.8-.4.2-7.3Z"/>
      <polygon class="st7" points="360.8 111.9 361.9 112.4 361.8 119.6 360.6 119.2 360.8 111.9"/>
      <path class="st7" d="M354.5,110.9l2.6-.1-.7,7.6-2.3-.2c-.1.1-.1-4.6.4-7.3Z"/>
      <path class="st7" d="M353.4,103.9s.6-1.2,1.2-1.3c.6,0,4,.2,4.4.4.3.3.6.7.6,1.2s-.1.2-.1.2l-6.1-.5Z"/>
      <polygon class="st7" points="355.7 86.6 357.8 83.5 358.6 85.5 357.4 101.5 357.1 101.4 356.9 100.4 355.9 101.1 355.7 100.5 357.1 98.1 356.7 97.7 355.8 98.8 355.5 98.2 357 95.6 356.6 94.9 355.8 95.6 355.8 95 357.1 92.6 356.9 92 356.2 92.3 356 91.5 357.7 89.1 357.7 87.9 356.3 89.9 356.2 88.7 357.7 85.9 357.6 84.6 355.9 87.2 355.7 86.6"/>
    </g>
    <path d="M364,137.7s.5.1.5.5-.3.5-.6.4c-.3-.2-.3-.8.1-.9Z"/>
    <circle cx="292" cy="90.1" r="1.4"/>
    <circle cx="287.4" cy="86.9" r="1.4"/>
    <circle cx="293.6" cy="82.6" r="1.4"/>
    <path d="M332.3,69.7s-1.2-.5-.6-1.3c.6-.7,2.1.9,2.1.9,0,0,1.7.7,2.8,1.1,1.1.3,5,2.2,5.1,2.9.1.6-1.5,5.6-1.6,6.8,0,1.2-.2,2.2-.7,2.1s-.6-.3-.1-2.8c0,0-.1-3.8-.6-4.5,0,0-4.5,1.8-7,4.7-2.6,2.9-8.3,12.5-17.6,9.2,0,0-4.9,8.1-12.7,3.7,0,0-5,5.2-8.3,5.6,0,0-2.5.6-.2-1.1s5.1-4,9.1-12.1c0,0,.6-1.9,1.2-.3,0,0-.3.5-.6,1.6-.3,1.1-1.5,3.8,1.3,3.4,2.9-.4,7-2,9.4-4.3,2.3-2.2,4-4.6,4.4-5.8.4-1.2,1.2-2.3,1.3-.5,0,1.8-1.7,5.5-1.7,5.5,0,0-.2.3.5.9.7.5,3.9,2.7,6.7.1,2.8-2.6,8.8-11.3,11.3-12.3,0,0,.4-.9-2.3-2.9l-1.2-.6Z"/>
    <circle cx="270" cy="87.7" r="1.4"/>
    <circle cx="265.3" cy="88.2" r="1.4"/>
    <circle cx="261.5" cy="83.6" r="1.4"/>
    <path d="M263.1,43.9s4.8-2.6,8.2-3c0,0,2-.1,1.6.2-.4.2-5.2,1.5-7,2.2-1.7.9-1.6,1.2-2,1.4-.5.1-1.3-.1-.8-.8Z"/>
    <path d="M334.9,161.5s.4-.3.6-2c0,0,.6-1,1.1.1.4,1.1,1.7,3.9,1,7,0,0-.4,1.3-.6.5-.2-.7-.4-3.1-.9-3.9-.5-1-1.3-1.4-1.3-1.4l.1-.3Z"/>
    <path d="M340.9,161.1s.2-.1.4-.6c.3-.5.2-1.4.9-1.5.6-.2.5,1,.5,1,0,0,1.4.6,1.4,3.7s.1,3.5-.2,4c-.3.5-.6.3-.6-.6s.4-2.9-.6-4.8c0,0-1.5-.7-1.8-1-.2-.3,0-.2,0-.2Z"/>
    <g>
      <path class="st11" d="M363.4,120.5v-1.6s1.7-.3,4.6,2.5c3,2.8,4.7,5.1,4.7,5.1,0,0,.9.3.6-.2s-.7-1.2-.7-1.2l.1-.6s3.4,3,4.7,6c0,0,.2,4.6-1,8.3l-1,2.3s-.4,1.1.3.2,2.5-3.3,3-4.8,1-2.5,1-2.5c0,0,.4,2,.5,4,.1,1.9.1,10.9.1,10.9,0,0,1.3,2.8,1.1,3.5s-3.4,7.6-5,10.3c-1.6,2.8-4,7.5-11.3,15.7,0,0-6.2,7-9.7,9.2,0,0-.3.3-.6-.2-.4-.4-1.3-1.4-1.2-1.7.1-.3-.2-.7.2-1.1.4-.4,1.9-2.6,3-5.1,1.1-2.6,1.4-3.8,1.5-4.3,0,0,4.4-3.3,5.9-8,1.4-4.8,1.4-5.8,1.9-10.4.5-4.7,1.4-18,1.4-18l.2-4s.1-1.6-1.5-2.3h0s.1-4.7-.4-7.5c-.9-2.7-.5-2.9-2.4-4.5Z"/>
      <path class="st11" d="M259.5,174.6l10.8,4.5s.9,3.2.5,6-.3,2.6-.6,3.5c-.3.9-2.8,6.1-3.2,7-.3.9-1.4,1.1-2.6,1.2s-5.8.3-6.5.1c-.7-.2-2.2-.5-2.3-1-.2-.3-.2-.5.2-1.1.3-.5,2.8-4.9,3.4-8.1,0,0,1-4.8.9-8-.3-3.3-.6-4.1-.6-4.1Z"/>
      <path class="st11" d="M335.1,200.5s-1.9-6.8,1.6-10.1c3.6-3.3,9.5-6.1,13.5-5.2,3.9.7,3.6,4.6,3.6,4.6,0,0-10,9.1-18.7,10.7Z"/>
      <path class="st11" d="M319.1,179.2l5.9-1.1s1.8,8.6,8.6,14.4c0,0-.5,3.5-.2,8.7-12.7,6.4-20.6,5-20.6,5l2.5-5s2.8-4.7,2.5-12c-.3-7.2-1.2-8.5-1.2-8.5,0,0,.9-1.3,2.5-1.5Z"/>
      <path class="st11" d="M279.1,115.8s3.7,2.5,6.5,2.5,3.4-.2,3.4-.2c0,0,.5.2.9.5.3.4,1.9,1.7,3.2,2.5,1.3.7,5.8,3.7,5.9,3.9.2.2.2.4.5.7.3.3,2.3,2,2.3,2,0,0-1.2.2-1.6,0-.5-.2-2.2-1.4-3.4-.5-1.2.9-5.6,6.6-7.5,11.9,0,0-.3.3-.4,0s-1-5.6-1.8-8.3c0,0-.3-1.1-2.2-3.9-1.9-2.8-2-3.3-2.8-3.9-.7-.6-1.1-.7-1.4-1.5-.2-.6-1.7-5-1.6-5.7Z"/>
      <path class="st11" d="M319.9,148s2.2-5.4,2.7-6.5c.4-1.1.7-2.3.7-2.3,0,0,2-1,2.9-3.2s.7-2.2,1-3.5c.2-1.2.3-2.7,1.9-4.2s3.5-4.4,3.5-4.4l.3-.1s4.3,2.3,4.3,6.5l-.2,3.7s2.5,4,3.5,4.2c0,0,.3.2.3-.4,0-.5-.3-4.2-.3-4.2,0,0-.2-4.8.2-6.5.4-1.7,1.1-3.6,1-4.8-.1-1.2-1.2-8.2-1.2-8.2,0,0-.5-2.9-.3-3.3l7,3.2s-.6,5.4-.4,6.3c0,0-2.7,2.8-2.9,6.2l-.7,4s-1,1.5-1.2,3.3-1.1,7.6-1.1,7.6c0,0,0,1.8-.5,2.5-.5.6-.6,1.2-1.1,1.1-.4-.1-1.4-1-2.1-1.1s-1.4-.2-2.9.2c-1.4.3-5.5.2-6.2.5-.5.3-.6.7-1,.7-.3.1-.6-.3-.6-.3,0,0-2.7-.1-3.9,1.1s-1.6,2.2-1.9,2.5c-.3.2-1.1.2-1.1.2l.3-.8Z"/>
      <path class="st11" d="M326.4,103.3s-.4-.2-.3-1c.1-.7-.2-1.2.4-1.3.5-.2,1.7-.6,2.1-.7.4,0,.7-.1.5.1s-.5.3-.3.7.5.4,1.1.4c.5,0,2.3-.5,3-.6.6-.1.6-.2.7.2.2.4,2,2.8,2,2.8,0,0,.3,1.1.5,2.5.3,1.4.6,2.2.6,4s-.3,2.6.1,2.6.4-.2.5-.9c0-.6-.1-1.7.2-2,.2-.3.6-.7.7-.5,0,.2,1,4.3,1,4.3,0,0,1.5,5.8,1.4,6.7-.2,1-.9,3.9-.9,4.9-.1,1.1-.1,7.1-.1,7.1,0,0-.4.3-.6-.2s-.5-1.2-.5-2c0-.9.4-4.9-.7-6.4-1.1-1.4-3.2-3.2-3.2-3.2,0,0-1-.5-1.6.4s-1.1,1.9-1.5,2-1,.5-1,.4,0-.7.4-1.4c.4-.6.9-.7,1-.9.1-.2,0-.4.3-1,.3-.5,1-1.6,1.3-2.5s.3-.9-.2-3.5c-.5-2.7-1.3-6-1.5-6.7s-.9-2.3-.9-2.9c-.1-.4-.6-2-.6-2,0,0-.4,3.2-.9,3.5l-.5-.3-2.5-2.6Z"/>
      <path class="st11" d="M267.9,110.8l.3.9s2.5,5.4,9.5,7c0,0,.1,0,.3.5.2.5,1.4,2.8,3.2,5.2,1.8,2.3,3.3,4.5,4.3,6.8,1,2.2,2.5,5.2,2.7,8.8,0,0,.6,3,.4,3.6,0,0,.1,1.1.4.7.5-.4.4-.3.5-1.3,0,0,1.2-3.2,3.3-6.2,0,0,.9-1.6,1.7-3.1.7-1.6,1.7-3.1,2.2-3.2.6,0,3.8.1,4.6.3.7.2.5.2.9.7.3.4,1.7,2.1,2.6,2.2.9,0,4.5.3,4.5.3,0,0,.2-.2.6.6.5.9,1.3,2.5,1.3,3.1s0,.5-.2,1.2c-.2.6-.9,3-.7,3.5.1.6.3.9.5,1.5s.6,1.4,1.2,3.4c.5,2.2.3,1.9.3,1.9,0,0-3-1.3-4.9-1.4-1.9,0-9.1,0-10.8.2-1.7.2-6.5.3-8.6,1.1s-4,1.8-4.5,5.5-.6,4.5-.6,4.5l-.4,11.8s.2,7.6.7,10.9,1.1,3.2,1.6,3.8c.5.6,2.9,3,7.1,3s15.6.1,15.6.1c0,0,4.5-1.2,4.8-1.7,0,0,.7-.5,1.1-1.6.3-1.1.6-3.6,1.1-4,.4-.3.5-.7.5-.7,0,0,.7,5.4.9,6.4.1.9.3,1.9.3,3.6s0,3.4-.7,6c-.6,2.6-1.3,3.6-1.3,3.6,0,0,.6,3.7-7.1,4.5-6.1.6-17.5-.3-17.5-.3,0,0-4.6.2-6.4-2.1-.5-.7-2.9-4.6-2.9-4.6,0,0-2.1-6.9-2.6-8.3s-1.9-4.7-2-5.2.1-1-.4-1.3-3.1-1.8-3.2-2.1c-.1-.3,0-1.4-.1-1.7-.1-.3-.4-1.7-1.4-1.8,0,0-.5,0-.6-.5-.2-.5-.5-2.5-1.8-6.5s-2.5-7.8-5-12.7c0,0-.6-.7-.3.5.3,1.3,1.4,5.8,2.2,9.1.9,3.3,2.5,9.1,2.5,9.1,0,0-7.5-2.9-7.8-3.3s-.5-1.5-1.9-1.9c0,0-.2.2-.3-.3-.2-.5-1.5-7.5-1.3-9.7,0,0,1,2,2,3.9,1.1,1.9,3.5,6.3,3.5,6.3,0,0,.9,1.1.7-.1-.1-1.2-.6-1.8-.6-1.8,0,0-3-8.3-3.1-9.2-.1-.9-1.8-5.8-1.3-7.9,0,0,.9-1.4,1.6-2.3.7-1,3.1-5.4,3.8-7.5.6-2,1.6-3.4,1.6-3.4,0,0,2.5-3.9,2.9-5.1.3-1.2.7-1.9,1.2-2.6.5-.6.3-1.1-.2-.4-.5.5-1.5,2-2.8,4.4s-4.7,8.1-5.5,9.6c-.9,1.5-4.7,6.6-6.1,7.8,0,0-.9.4-.6,0,.2-.3,1.9-4.6,2.8-6.6s2.9-6.6,3.8-10.8c.9-4,1.5-11.4,1.9-11.9,0,0,.2-.5-.3.1s-2.5,3.5-2.5,4.4c0,.7,0,1.7.1,3.7.2,1.9.2,3.3-.2,4.3-.3,1-.4,2.9-4.3,9.5,0,0-.3-1.2-.1-2.2.2-1.1.9-5.8.9-6.2-.1-.4-.2-.4-.3-.9-.1-.5-.2-1.9,0-2.7s.5-2.1-.4-1.1l-.2.7s-.5-.1-.4-.6,0-2.3.1-2.8c.2-.4.2-1.8-.5-.9l-.2,1s-.4,0-.4-.2-.5-1.1-.5-1.7c0-.5.2-1.8.1-1.9-.1-.2-.3-.3-.5,0,0,0-.2.2-.3-.1-.1-.3-.2-1.2-.9-3.2-.6-2-2.1-6.4-4-8.5-1.9-2.2-1.8-3.3-6.4-5.2,0,0-1.5-.4-.3.2,1.3.5,3.6,1.4,5.5,4.7,1.6,2.8,2.8,5.2,3.3,8.4.4,3.1,1.1,4.5,2.3,7.5,1.3,3,2.5,7.5,2.5,9.1,0,1.5.7,6.1-1.1,9.8,0,0-.4.2-.4-.2s.9-6.1.3-7.6c-.5-1.5-1.7-4.2-3.1-7.2s-1.1-4-2.3-5.8c0,0-2.8-5.6-3-6.1-.1-.5-.2-1.8-.7-.7,0,0,.2.6.7,1.9s2.5,4.6,2.8,5.8c.3,1.2,1.9,5.5,2.5,8.3s1.1,6.7,1.1,10,.2,4.5-.6,6.9c-.9,2.6-1.7,4.9-2,5s-.3-.6-.3-.6c0,0,.3-13.3-.1-14.1,0,0-.3-.9-.5.2s-.3,1.4-.3,2.5-.2,6.4-.4,8.3c-.2,2-.7,5.3-1.2,5.9-.4.5-1.8,3.3-2.2,3.5-.4.2-1.2,0-1-.5s.7-1.1.9-1.6c0-.5.2-1.1-.6-.6-.7.4-.6.9-1,.9-.3,0-.3-.7-.2-1.1.2-.2.7-.5.9-.9.1-.3.5-1.5-.4-.6-1.1.9-1,1-1,1,0,0-.3,0-.1-.4s1-1.8,1-1.9c0-.2.3-1.6-.2-.7s-2.8,4.2-2.8,4.2c0,0,0,.5.7.6s.4.2.1.6c-.3.3-.5.7-1,.4-.4-.3-1.3-2.9-2.2-4.7-1-1.8-3.6-6.3-5.4-8.3-1.7-2-3.8-4-3.8-4l.1.6-1.2-.9,3.4,5.5s.5,1.1,1.9,3.2,3.1,5.6,3.1,5.6c0,0-1.7.1-2.3-.4-.7-.5-4.5-4.3-6.1-5.4-1.7-1.2-3.6-2.3-7.8-3.5l-5.2-1.9h-3.1s-.9.5.5.6,1.7.2,2.1.4,2.8.9,7.8,3.6,8.6,5.2,8.8,5.9c0,0-1.5.2-1.9,0-.5-.2-1.9-1-2.6-1.1-.6-.1-8.8-.7-8.8-.7,0,0-7.8-.9-10.1,0,0,0-.4.9.3.6.7-.2,1.5-.4,3.3-.3,1.8.2,4,.5,4.9.7s1.9,0,2.2.1c.2,0,1.2.5,1.2.7s-.1,0-.6.2-8,.2-8.6,1.7c0,0-.4.4.3.5.7,0,1.8-.5,2.6-.3.7.1,5.8.3,5.8.3,0,0,7.2-.2,9.4-.1s4.6.2,6.2.9c1.6.6,5.1,2,6.2,3.5,0,0,.3.2,0,.3-.2.1-3.4.5-3.7.4s-.9.3-.2.4c.6.1,2.5.2,2.5.2l9.2.6s3.6.2,4.8.9,6.4,3.1,7.1,5.1c.7,1.9.9,2.3.5,4.9s-1.2,3-1.9,3.4l-1.3.2s-.4.2.2.4c.7.2,1.3.4,1.7,0,0,0,.4,0,.4.1,0,.2-.2,1.1-.2,1.1,0,0-.2,4.7-4,9.5,0,0,.2,1.4-7.6,2.8-7.8,1.4-11.1,1-11.1,1,0,0-.5,0-1,.2s0,.2-2.2.3c-2.2.1-10,.3-11.7.3s-2,.1-4-.3-13-3.3-13.2-3.5-.2-.5,0-.5c.3,0,.5-.9-.1-.7-.6,0-.5.3-.5.3,0,0-7.1-.5-9.5-1.2,0,0-3.6-.7-5.2-1.3-1.6-.6-4.2-.9-5.6-3.1-1.4-2.2-1-4.9-.4-6.5.5-1.6,3.2-6.7,3.8-8.4.7-1.7,1.8-3.9,1.7-7.5,0,0,.4-2.7,1.2-4.2.9-1.6,5.1-8.7,5.8-9.4.6-.6,3-3.2,7.7-8.7,4.8-5.5,9.8-10.7,11-13.6,1.2-3,2.3-7.1,3.9-9.9,1.6-2.8,3.4-6.1,6.1-9,2.6-3,3.8-4.6,4.5-4.7s4.3-.3,4.5-.3,3-.3,3.3-.1c.3.2,1.4-.1.2-.5l-1.1-.1s-3.2,0-4.3-.9c0,0-2.6-.1-3-.4-1.1-.7.5-1.1.7-1.3.5-.3,3.3-1.7,3.8-2,.6-.3,1.3-1,1.8-1s3.6-.7,4.9-.7c1.4,0,5.8.1,10.8,1s10.9,1.4,11.4,1.7c.5.3,1.3.5,1.8.4s.7-.3.3-.5c-.5-.2-.6-.1-1.2-.3s-1.2-.6-1.5-1c-.3-.3-.7-.4-1.1-.5,0,0-3.8-.5-4.2-.9-.3-.3,0-.6.4-.7.3,0,5.1-1.7,6.3-2.1,1.2-.3,1.3-.4,2.6-.5,1.3-.1,3-.2,3.5-.1.5.2.7.2.2.6-.4.3-3.3,3.7-3.2,7.8.1,4,.3,4.3,1.2,5.5.7,1.2,1.6,3,1.9,2.2s.2-.9.2-.9l.1-.7Z"/>
    </g>
    <path class="st4" d="M254,193.8c13.5,8.6,29.7,13.6,47,13.6,48.4,0,87.5-39.2,87.5-87.5s-39.2-87.5-87.5-87.5-87.5,39.2-87.5,87.5c0,2.3.1,4.7.3,7"/>
    <path class="st11" d="M216.7,119.9s-2.7,4.3-3,7.4h3.8c.1-.1,1.8-7-.8-7.4Z"/>
    <path class="st6" d="M344.2,133.2s-.4-.9,1-1.3c3.5-1,3.2-1.7,11.1-.7,5.9.7,9,2.3,9.2,3.2.2.9.2,1.8,0,2.5l-.2.3s-2.6-1-2.3,1.1c.2,1.9,1.5,1.4,2.6,1.2l-1.1,15.6s-.1,9.3-2.7,13.5c-2.6,4.3-4.3,5.5-7.4,6.9,0,0,.3-.6,0-.9s-.4-.6-.7-.2c-.3.4-1.6,1.3-2.9,1.1,0,0,.3-2.2-.3-5.5-.6-3.3-1.3-6.2-1.3-7.6-.1-1.4.4-3.5-.3-5s-.9-2.5-5.1-5.5l-.1-3.7s.2-2.9-1.5-3.8c0,0,.9-5.2,1.1-6.6.1-1.6.9-4.6.9-4.6Z"/>
    <path class="st6" d="M286.9,151.9s-1.4,1.9-1.5,3.8,0,3.7,0,3.7l2.5.1v.3s-2.3-.1-2.5,1.2c-.1,1.4-.3,2.6.3,2.6h4.2l-.1.3s-3.7.6-4.2,1.3c-.4.6-.3,1.1-.3,1.1l-.2,6.9s.1.6,1.4,1.1c1.3.3,1.2.4,1.2.4l-.1.3s-2,0-2.1,1.4-.1,1.5.2,1.7c.3.2,3.1.6,3.1.6v.4s-2.7.4-3,1.7c-.3,1.3-.4,2.2.9,3.8,1.3,1.6,2.2,2.2,4,2.5,1.8.2,2,0,2,0l.1.9s0,.6-1.8.3c-1.8-.3-3.6-.5-5.5-3.3s-1.6-8-1.6-8v-10l.4-8.5c.1,0-.2-6.4,2.6-6.6Z"/>
    <path class="st6" d="M293.8,149.5s4.5-.7,5.6-.3v.3s-2.6-.1-3.9,1.8h-.3l-1.4-1.8Z"/>
    <path class="st6" d="M294.7,153s.7,1.5.7,4.9-.2,13.9-.3,15c-.1,1.2-.1,8.8-.1,8.8,0,0,.1,3.8-.3,4-.4.3-1.9.4-2.2.3-.3,0-.2-.3-.2-.3,0,0,1.4-.1,1.6-1.4.2-1.2.3-6.8.3-6.8l.3-10.6.3-10.6s.1-2.1-.4-3.4l-.2-.9.5,1Z"/>
    <polygon class="st6" points="296.1 162.4 301.1 162.6 301.1 163.8 296.1 163.9 296.1 162.4"/>
    <path class="st6" d="M308.8,160.1l.1.7s-3.9.1-4.7,1.9c-.7,1.7-.6,3.8-.6,3.8v5.8s.5,2.8,2.8,3.1c2.2.3,3,.1,3,.1l-.1.9s-4.5.5-5.3-.6c-1-1.3-1.3-2.5-1.4-6.4,0-3.9-.1-7.7,1.4-8.1,1.5-.5,2.9-1,4.7-1.1"/>
    <path class="st6" d="M304.7,160.4s.3-1.2-.9-1.4c0,0-6.3-.3-7.7-.2l-.2-.7s6.3-.3,8.2.1c1.8.4,2.3.5,2.5,1.1.2.5.6.8-1.9,1.1Z"/>
    <path class="st6" d="M302.1,149.1s3.8-.9,6.9.4,4.5,2.5,4.7,3.1c.1.6,1.1,3.1,1.3,3.3s1.1,1.1,1.2,1.6,1,3.6,1,5.6.4,9-1.1,14.2c0,0-.9,1.9-1.6,2.9-.7,1.1-1.3,2-1.5,2.8-.2.7-.4,2-.6,2.7-.2.5-1.4,1.3-1.9,1.1-.4-.2-.4-1.1-.2-1.3.2-.3.4-1.7.4-2.2s.2-6,.2-6c0,0,1.8-.6,2.1-1.8.3-1.2.5-7,.5-7l.1-6.4s-.4-2.7-3.3-2.7l-.4-.4s-.4-3.7-.9-5.2-1-3.4-2.1-3.6-4.3-.3-4.3-.3h-.5v-.8Z"/>
    <polygon class="st6" points="295.6 174.5 301.9 174.6 302 175.4 295.5 175.4 295.6 174.5"/>
    <path class="st6" d="M307.5,163.2s1.3-1,1.7-.7c.4.2.3.4.3.4l-.1,9.8s-1.7,2.1-2.3-.7c-.6-3,.1-8.5.4-8.8Z"/>
    <path class="st6" d="M310,160.1s2.3-.3,2.5,2.8c.1,3.1,0,10.4,0,10.4,0,0-.4,2-1.4,2.1h-.5l-.2-1.8s.6-.6.7-1.3c.1-.6.2-10-.1-10.3-.3-.3-.9-.6-.9-.6l-.1-1.3Z"/>
    <path class="st6" d="M295.6,178.3s6.6.6,7.7.2,1.5-.9,1.6-1.5h2.3s.1,1-.6,1.7-1.7.7-1.7.7l-9.4-.2.1-.9Z"/>
    <path class="st6" d="M316.3,178.5s1.8-3.1,1.8-9.1.3-4.6-.6-10.7l8.1.2s-.3,1.1-.2,2.3c.2,1.4.6,5.1.6,5.1,0,0-5.1.2-5.8.6s-1.1.3-1.2,1.5-.4,6.6-.7,7.5c-.4,1-1,2.5-1,2.5l-1.3.2.3-.1Z"/>
    <path class="st6" d="M294.5,187.2s.9-.6,1.1-1.2l1,1.2c-.2,0-.8.8-2.1,0Z"/>
    <path class="st5" d="M346.9,142.8c1.1,0,1.8.9,1.8,1.8,0,1.1-.9,1.8-1.8,1.8-1.1,0-1.8-.9-1.8-1.8-.2-1,.7-1.8,1.8-1.8Z"/>
    <path class="st6" d="M276.6,37.3s-1,.2-.7-.7c.2-1,.5-1,1.2-1.5.6-.5,2-1.1,1.5-1.6,0,0-.5-.3-.7,0,0,0-.3-.2.1-.6.4-.3,2.8-2,2.8-2,0,0,.3-.7-.2-.6-.5,0-.6.2-.6.2,0,0-.5,0-.2-.3s1.6-1.9,2.1-2.1c.5-.2,1.4-.3,1.5-.9.1-.5-.3-.5-.5-.4-.3.1-.6.3-.6.3h-.2s.4-1.1,1-1.3c.5-.3,3.1-1.9,3.1-1.9,0,0,0-.6-.5-.5l-.5.1s3.1-3.9,8-5.9c0,0,.7-.3,0-.6,0,0,2.3-3.1,6.6-3.3l.1.2s-5.1,6-9.7,13.9c0,0-.3.7.3.2,1.1-1,3.1-1.7,3.1-1.7,0,0,0-.5-.3-.5-.5.1-.5-.1-.5-.1,0,0,.2-.5.5-.6s2.8-1.1,2.8-1.5-.2-.3-.2-.5.2-.5.4-.5,1.1,0,1.1-.5-.4-.5-.4-.5c0,0,.2-.9.4-.9s1,.3,1.3,0,.6-.4.3-.6c-.3-.2-.6-.2-.6-.4.1-.2.3-.4.5-.5.1-.1,1.2-.3,1.4-.5.2-.2.1-.5,0-.6-.1-.2-.1-.5.1-.5s.7-.3,1.1-.5c.2-.2,1.6-.4,1.6-.4,0,0,.2-.3-.1-.5-.3-.2-.6-.6-.3-.9.3-.2,2.1-.3,2.6-.6.3-.3.5-.6.2-.7-.2-.1-.3-.4-.3-.4,0,0,2.5-.6,2.7-1,.1-.3.3-.4.4-.6.2-.1,3.3-1.3,4.6-.7,1.3.5,2.8,2.2,2.9,2.8.2.5-.3.5-.3.5,0,0-3.2,1.6-7.5,6.6,0,0-5.5,5.6-5.9,6.7s-.5,1.9-.1,1.4.5-1.3,1.1-1.7c.4-.4,2.8-3.4,3.8-4.3,1.1-.9,5.3-5.2,8.2-6.5,2.9-1.3,3.8-1.6,4.4-1.4.4.2,1.4.4,2.8,1.7,1.4,1.2,4,3.2,6.1,5.3,1.9,2.1,4.9,7.7,6.2,10.1,1.3,2.5,3.2,8.2,3.9,10.9.7,2.7,2.6,8,2.9,11.8l-9.3-3.8s-5.3-2.3-6.5-2.1c-1.1.2-.4.4.5.7,1,.2,6,1.8,9.1,3.3,2.6,1.3,6.2,2.7,6.2,2.7l.2,2.3-2.3-1.1-11.5-4.7s-8.8-2.8-9.7-3.1-.7-.5-1.2-.9c-1.3-.9-6-6.2-19.1-10.3l-5.3-.4s-.2-.3.4-.4,2.9-.3,4.5.1,4.6,1,8.1,2.5c2.7,1.2,6.5,2.2,11.6,6.6,0,0,1.2,1.1,1.7,1.5.4.3,1.2-.2.5-.9-.6-.6-3.5-3.6-8.8-6.1s-8.5-3.6-12-4.2c-3.5-.5-5.9-.5-5.9-.5l-4.7.1s0-1,1.6-1.7c0,0,.9-.5.3-.6-.5-.2-.6-.6-.3-.9.3-.2.5-.5.5-1,0-.4,0-1-.3-.5s-3.6,4.8-3.6,4.8l-9.5.7Z"/>
    <path class="st6" d="M261.8,45.3s-.7-1,.5-2,2.1-2.1,8.3-3.4c6.2-1.3,12.7-2.5,19.2-2.6,0,0,.1.1-.1.4s-7.2.9-8.2,1.9c0,0-.1.2.6,0,2.3-.6,5.4-.9,7.9-1.1,2.5-.3,4.2-.6,9.3,1.3,5.1,1.9,7.8,3.1,11.1,5.4,3.3,2.3,3.6,3.1,3.6,3.1,0,0-7.9-.9-10.8-1.2-2.9-.2-9.1-.3-11.4-.3s-12.4.4-15.5.7-8.5.5-8.5.5c0,0,0,.1-.7,0-.5-.2-3.9-.8-5.3-2.7Z"/>
    <path d="M356,144.3s-.2-1.4,1.2-1.2c1.4.2,3.5.7,3.5.7,0,0,.9,0,.7,1.8-.1,1.7-.5,12-.5,12,0,0,.1.7-1,.6s-4.4-.7-4.4-.7c0,0-.9-.1-.9-.9.1-.7,1.4-12.3,1.4-12.3Z"/>
    <path d="M354.4,157.9l6.4,1.4s-.9,4.9-4.5,4.2c-3.5-.9-1.9-5.6-1.9-5.6Z"/>
    <path class="st6" d="M356.7,147.2s0-.3.4-.2c.4.1,3.8.7,3.8,1.2,0,.4.2.9-.1,1-.3.1-3.9-1-4.2-1.2-.2-.3.1-.8.1-.8Z"/>
    <path class="st1" d="M8.7,219.7l24.4-54.5h18.3l5.9,54.5h-13.6l-1.1-14.4-15-.3-5.6,14.7h-13.3ZM30.9,197.1l11.1.2-1-26.2-10.1,26Z"/>
    <path d="M110.7,189.4l.9-3.5c1.2-4.7-.2-7.1-3-7.1-4.7-.1-6.3,2.1-7.2,5.8l-6.8,27.3c-.7,3.1.2,4.9,4.2,4.9,5.1,0,6.7-4.6,7.5-8l1.3-5h15l-1.7,6.8c-2.3,9.5-10.2,16.1-25.6,16.1-13.9,0-17.6-6.3-14.8-17.6l5.5-22.7c3-12,10.8-17.6,24.4-17.6,12.8,0,19.3,4.7,16.5,16l-1.1,4.7h-15.1v-.1Z"/>
    <path class="st1" d="M106.6,184.4l.9-3.5c1.2-4.7-.2-7.1-3-7.1-4.7-.1-6.3,2.1-7.2,5.8l-6.8,27.3c-.7,3.1.2,4.9,4.2,4.9,5.1,0,6.7-4.6,7.5-8l1.3-5h15l-1.7,6.8c-2.3,9.5-10.2,16.1-25.6,16.1-13.9,0-17.6-6.3-14.8-17.6l5.5-22.7c3-12,10.8-17.6,24.4-17.6,12.8,0,19.3,4.7,16.5,16l-1.2,4.7h-15v-.1Z"/>
    <path d="M237.9,170h37.2l-3.1,11.7h-23.3l-2.3,8.6h21.6l-3,11.2h-21.6l-2.9,10.9h24l-3.3,12.5h-37.8l14.5-54.9Z"/>
    <path class="st1" d="M234.3,164.9h37.4l-3.1,11.7h-23.4l-2.3,8.7h21.6l-3,11.2h-21.7l-2.9,10.9h24.1l-3.3,12.5h-38l14.6-55Z"/>
    <path d="M152,166.7l23.7.2.9,31.1,15.7-30.9,23.6.2-13.9,58.3-15.5-.1,10.4-44.3-20.9,44.2-12-.1.2-44.4-10.4,44.3-15.5-.1,13.7-58.4Z"/>
    <path class="st2" d="M148,165.4l23.7-.1.7,29.2,15.8-29.1,23.7-.1-14,56.2-15.5-.1,10.4-43.6-20.8,43.4-12-.1.1-43.7-10.5,43.6-15.5-.1,13.9-55.5Z"/>
    <path d="M550.4,205.3l13.3.3c-.1,2.7.2,4.3.9,5.8,1.1,2.2,3,3.4,5.8,3.4,2,0,3.7-.5,5-1.7s2-2.5,2.3-4c.2-1.5-.1-2.8-1-3.9-.9-1.2-3.1-2.2-6.7-3.3-6-1.7-10-4-12.3-6.9-2.2-2.9-3-6.5-2.3-10.9.4-2.9,1.6-5.6,3.3-8.2,1.8-2.6,4.2-4.6,7.1-6,3-1.5,6.8-2.1,11.6-2.1,5.9,0,10.1,1.4,12.8,4s3.8,6.9,3.5,12.8l-13.5.9c0-2.6-.4-4.4-1.4-5.5-1-1.2-2.5-1.7-4.5-1.7-1.7,0-3,.4-3.9,1.3-1,.9-1.6,1.9-1.7,3.1-.1.9.1,1.7.6,2.5s2,1.5,4.5,2.1c6,1.7,10.1,3.3,12.6,5s4,3.7,4.9,6.3c.9,2.5,1,5.2.5,8.3-.5,3.6-1.9,6.9-4,9.9s-4.8,5.3-8,6.8-7,2.3-11.5,2.2c-7.8-.1-13-1.9-15.3-5.6-2.5-3.7-3.1-9.1-2.6-14.9Z"/>
    <path class="st1" d="M546,201l13.3.3c-.1,2.7.2,4.3.9,5.6,1.1,2.2,3,3.4,5.8,3.4,2,0,3.7-.5,5-1.7s2-2.5,2.2-3.9-.1-2.7-1-3.8c-.9-1.2-3.1-2.2-6.7-3.3-6-1.7-10-3.9-12.3-6.8-2.2-2.8-3-6.4-2.3-10.7.4-2.9,1.6-5.5,3.4-8,1.8-2.6,4.2-4.5,7.1-6,3-1.4,6.8-2.1,11.6-2.1,5.9,0,10.1,1.4,12.8,4,2.7,2.7,3.8,6.8,3.5,12.6l-13.5.9c0-2.5-.4-4.3-1.4-5.4-1-1.2-2.5-1.7-4.5-1.7-1.7,0-3,.4-3.9,1.3-1,.9-1.6,1.8-1.7,3.1-.1.9.1,1.7.6,2.3.5.7,2,1.4,4.5,2,6,1.7,10.1,3.3,12.6,5s4,3.7,4.9,6.2,1,5.2.5,8.2c-.5,3.5-1.9,6.8-4,9.8s-4.8,5.2-8,6.7-7,2.2-11.5,2.2c-7.8-.1-13-1.9-15.3-5.5-2.5-3.8-3.1-9.1-2.6-14.7Z"/>
    <path d="M328.3,170h38.7l-2.7,11h-12l-10.8,43.9h-14.9l10.8-43.9h-11.7l2.6-11Z"/>
    <path class="st3" d="M324.4,165.1h38.7l-2.7,11h-12l-10.8,43.9h-14.9l10.8-43.9h-11.7l2.6-11Z"/>
    <path d="M498.5,225l13.5-54.9h15l-10.9,43.9h18.2l-2.7,11h-33.1,0Z"/>
    <path class="st3" d="M494.6,220l13.5-54.9h14.9l-10.8,43.9h18.2l-2.7,11h-33.1Z"/>
    <path d="M418.7,207.5c-3.1,12.4-9.6,18.9-24.7,18.9s-18.8-6.4-15.7-18.9l5.5-22.4c2.6-10.6,11.3-16.4,24.4-16.4s18.7,5.9,16.1,16.4l-5.6,22.4ZM409.1,186c.9-3.4,1.5-7.4-3.4-7.4s-6.3,4-7.1,7.4l-5.5,22.6c-.7,3.2-1.4,7.8,3.5,7.8s6.3-4.7,7.1-7.8l5.4-22.6ZM481.1,207.5c-3.1,12.4-9.6,18.9-24.7,18.9s-18.8-6.4-15.7-18.9l5.5-22.4c2.6-10.6,11.3-16.4,24.4-16.4s18.7,5.9,16.1,16.4l-5.6,22.4ZM471.4,186c.9-3.4,1.5-7.4-3.4-7.4s-6.3,4-7.1,7.4l-5.5,22.6c-.7,3.2-1.3,7.8,3.5,7.8s6.3-4.7,7.1-7.8l5.4-22.6Z"/>
    <path class="st3" d="M414.7,202.6c-3.1,12.4-9.6,18.9-24.7,18.9s-18.8-6.4-15.7-18.9l5.5-22.4c2.6-10.6,11.3-16.4,24.4-16.4s18.7,5.9,16.1,16.4l-5.6,22.4ZM405.1,181.1c.9-3.4,1.5-7.4-3.4-7.4s-6.3,4-7.1,7.4l-5.5,22.6c-.7,3.2-1.4,7.9,3.5,7.9s6.3-4.7,7.1-7.9l5.4-22.6ZM477.1,202.6c-3.1,12.4-9.6,18.9-24.7,18.9s-18.8-6.4-15.7-18.9l5.5-22.4c2.6-10.6,11.3-16.4,24.4-16.4s18.7,5.9,16.1,16.4l-5.6,22.4ZM467.5,181.1c.9-3.4,1.5-7.4-3.4-7.4s-6.3,4-7.1,7.4l-5.5,22.6c-.7,3.2-1.4,7.9,3.5,7.9s6.3-4.7,7.1-7.9l5.4-22.6Z"/>
  </g>
</svg>