<?xml version="1.0" encoding="UTF-8"?>
<svg id="Layer_1" xmlns="http://www.w3.org/2000/svg" version="1.1" viewBox="0 0 656 224">
  <!-- Generator: Adobe Illustrator 30.0.0, SVG Export Plug-In . SVG Version: 2.1.1 Build 123)  -->
  <defs>
    <style>
      .st0 {
        fill: #f90;
      }

      .st0, .st1 {
        fill-rule: evenodd;
      }
    </style>
  </defs>
  <path class="st1" d="M570.19,126.53h19.75c2.06.04,3.78-1.62,3.85-3.72v-55.85c0-7.01.37-13.35,3.14-19.69,1.9-4.82,6.38-8.06,11.46-8.3,12.62,0,12.5,14.12,12.4,25.22,0,.94-.02,1.85-.02,2.73v56.35c.24,1.81,1.72,3.18,3.51,3.26h19.91c1.89.04,3.51-1.35,3.8-3.26V57.97c0-10.04,0-24.02-5.17-32.32-5.59-8.95-14.25-12.22-23.11-12.22-13.67,0-21.43,6.76-26.97,20.96h-.39v-15.87c-.4-1.66-1.83-2.84-3.51-2.9h-18.36c-1.94-.05-3.59,1.43-3.8,3.4v103.79c.03,1.99,1.56,3.62,3.5,3.72ZM551.62,72.09c0-32.75-15.89-58.52-45.28-58.52s-44.53,25.34-44.53,57.43,15.7,57.86,44.53,57.86,45.28-25.11,45.28-56.76ZM491.01,67.72c0-12.67.93-32.96,15.53-32.96,6.27,0,10.71,2.88,12.93,10.04,2.59,8.29,2.96,18.77,2.96,27.51,0,13.31-.58,35.15-16.09,35.15s-15.33-26.47-15.33-39.31v-.42ZM120.73,126.74h19.8c.99.02,1.95-.36,2.67-1.06s1.13-1.67,1.15-2.68v-55.85c0-11.96-.02-27.77,13.67-27.77,12.65,0,12.46,13.89,12.3,25.12h0c-.02,1.21-.03,2.39-.03,3.52v55.01c.03,1.99,1.56,3.61,3.51,3.72h19.84c.99.02,1.95-.37,2.66-1.07.71-.7,1.12-1.66,1.14-2.67v-56.3c-.01-5.83-.03-13.69,1.86-18.57,1.92-4.99,6.58-8.34,11.83-8.5,5.73,0,10.16,1.97,11.64,8.95.75,3.36.65,11.15.59,16.31-.01,1.22-.03,2.29-.03,3.12v55.01c.03,1.99,1.56,3.62,3.5,3.72h19.79c.99.02,1.95-.36,2.67-1.06s1.13-1.67,1.15-2.68V57.52c0-1.6.03-3.23.05-4.87h0c.16-9.78.33-20.19-5.05-27.66-6.52-8.48-17.02-12.7-27.45-11.05-10.43,1.65-19.18,8.92-22.89,19.01-5.56-13.12-13.49-19.22-25.69-19.22s-21.26,6.1-26.06,19.22h-.37v-13.55c-.1-1.93-1.61-3.47-3.51-3.58h-18.45c-2.04-.02-3.72,1.62-3.79,3.7v103.79c.18,1.87,1.67,3.32,3.51,3.42ZM86.3,127.53c-1.3,1.15-3.18,1.35-4.68.48-5.61-4.76-7.3-7.34-9.89-11.29-.45-.68-.92-1.4-1.44-2.18-10.88,11.31-18.57,14.69-32.65,14.69-16.67,0-29.63-10.51-29.63-31.51,0-16.41,8.76-27.56,21.03-33.04,9.06-4.06,21.14-5.32,31.59-6.41h0c1.94-.2,3.83-.4,5.63-.61v-2.61c0-.5,0-1.01,0-1.52.03-4.45.07-9.41-2.41-13.15-2.42-3.72-7.01-5.24-11.11-5.24-7.55,0-14.28,3.96-15.93,12.13-.21,1.91-1.65,3.43-3.5,3.72l-19.03-2.13c-.95-.14-1.8-.67-2.36-1.47-.56-.8-.77-1.79-.59-2.76,4.4-23.77,25.43-30.94,44.26-30.94,9.64,0,22.22,2.61,29.79,10.06,8.89,8.5,8.83,19.62,8.77,31.78,0,1-.01,2.01-.01,3.03v31.48c0,8.48,3.08,12.69,6.32,17.14.39.53.77,1.06,1.16,1.6,1.26,1.79,1.54,4.03,0,5.37-4.05,3.45-11.23,9.83-15.18,13.42l-.16-.04ZM66.34,78.25v.98c0,7.44.01,13.76-3.7,20.49-3.15,5.69-8.15,9.2-13.72,9.2-7.59,0-12.02-5.91-12.02-14.67,0-17.22,15.12-20.35,29.44-20.35v4.35ZM359.93,107.1c.39.53.77,1.06,1.16,1.6,1.33,1.86,1.61,4.04-.09,5.28-4.05,3.45-11.23,9.84-15.17,13.42-1.31,1.14-3.18,1.32-4.68.47-5.63-4.78-7.3-7.32-9.93-11.33h0s0-.01,0-.01c-.44-.67-.9-1.37-1.42-2.14-10.87,11.31-18.61,14.69-32.63,14.69-16.67,0-29.63-10.5-29.63-31.5,0-16.43,8.71-27.58,21.12-33.05,9.08-4.07,21.23-5.33,31.71-6.41h0c1.9-.2,3.74-.39,5.51-.59v-2.56c0-.5,0-1,0-1.51.03-4.46.07-9.42-2.43-13.14-2.35-3.72-7.03-5.26-11.11-5.26-7.55,0-14.25,3.96-15.91,12.13-.21,1.91-1.65,3.43-3.51,3.72l-19.19-2.11c-.96-.13-1.82-.67-2.38-1.47-.56-.8-.77-1.81-.59-2.77,4.42-23.78,25.44-30.94,44.28-30.94,9.62,0,22.2,2.61,29.79,10.06,8.91,8.45,8.84,19.49,8.77,31.58h0c0,1.07-.01,2.15-.01,3.22v31.5c0,8.46,3.08,12.68,6.32,17.12ZM308.48,108.81c5.56,0,10.57-3.51,13.7-9.18,3.72-6.78,3.72-13.12,3.72-20.65v-5.17c-14.32,0-29.44,3.11-29.44,20.35,0,8.75,4.43,14.66,12.02,14.66ZM377.84,19.17v14.78c-.01,1.01.39,1.99,1.1,2.69.71.71,1.68,1.08,2.67,1.05h34.07l-39.06,57.27c-1.78,3.07-2.63,6.62-2.42,10.18v15.12c0,2.18,2.37,4.67,4.63,3.44,21.54-11.41,47.16-11.45,68.75-.13,2.47,1.31,4.8-1.22,4.8-3.4v-15.89c-.07-2.43-1.4-4.64-3.51-5.78-11.37-6.53-24.6-8.45-37.12-8.14l33.72-49.14c3.14-4.4,4.89-7.19,4.89-9.32v-12.72c0-1.01-.39-1.98-1.09-2.69-.71-.71-1.67-1.09-2.66-1.05h-65.07c-.99-.06-1.96.32-2.66,1.03-.71.71-1.08,1.7-1.03,2.71Z"/>
  <path class="st0" d="M410.38,192.74c4.5-11.44,14.53-37.06,9.76-43.27h.03c-4.75-6.22-31.38-2.96-43.36-1.49h-.03c-3.64.45-4.21-2.79-.93-5.13,21.27-15.27,56.13-10.9,60.18-5.75,4.05,5.15-1.1,40.84-21.03,57.87-3.07,2.61-5.99,1.22-4.63-2.24ZM267.23,210.39c46.33,0,100.29-14.94,137.46-42.95v.05c6.15-4.72.88-11.67-5.4-8.95-40.57,17.48-84.12,26.6-128.15,26.84-61.09,0-120.18-17.11-167.98-45.51-4.19-2.49-7.31,1.9-3.8,5.1,46.02,42.4,105.89,65.73,167.88,65.41Z"/>
</svg>