<?xml version="1.0" encoding="UTF-8"?>
<svg id="Layer_1" xmlns="http://www.w3.org/2000/svg" version="1.1" viewBox="0 0 2447.33 525">
  <!-- Generator: Adobe Illustrator 30.0.0, SVG Export Plug-In . SVG Version: 2.1.1 Build 123)  -->
  <defs>
    <style>
      .st0 {
        fill: #1a64b7;
      }
    </style>
  </defs>
  <path class="st0" d="M2045.63,369.86h-68.93l82.94-168.74h1.32l-15.33,168.74ZM541.6,369.86h-68.89l82.86-168.74h1.32l-15.29,168.74ZM2284.97,433.58l86.22-300.53h-118.91l-98,341.49-2.19-341.49h-143.22l-194.71,334.46,95.96-334.46h-112.87l-48.58,209.7h-2.04l-32.58-209.7h-122.69l-86.3,300.49h-169.65l23.22-80.94h148.62l21.44-74.82h-148.62l20.08-69.91h153.34l21.52-74.82h-565.31l-9.59,33.48c-17.36-26.2-54.81-42.09-112.65-42.09-92.3,0-160.1,35.98-180.29,106.38-9.44,32.99-3.21,55.91,12.99,74.9,16.84,18.99,43.79,33.45,75.99,48.92,27.33,14.01,59.42,25.97,50.36,57.42-6.49,22.62-27.43,38.02-50.96,37.45-37.64,0-41.68-19.03-35.48-40.54l7.63-26.54-110.19.15-7.66,26.65-1.77-276.22h-143.22l-82.11,141.07,22.12-77.2h-197.28l25.44-88.52h214.38l28.77-100.34H143.53L0,508.29h158.17l60.59-211.02h190.41l-122.84,211.14h119.59l34.96-72.44h93.24l-3.85,72.44h120.23l-.15-36.39c14.87,26.42,53.49,44.96,123.48,44.96,98.75,0,164.33-39.94,184.94-111.89,13.02-45.41,3.96-70.37-18.27-89.32-22.27-18.99-57.12-31.97-95.73-52.89-20.76-12.04-33.14-23.52-23.37-45.94,7.55-16.5,24.65-26.5,48.77-24.99,39.03,2,29.07,31.94,24.16,53.91h109.47c4.91-13.48,7.4-26.16,7.66-37.94h70.1l-86.26,300.49h118.91l86.22-300.49h80.82l-86.22,300.49h401.81l49.19-209.21,1.62-1.02,33.07,210.19h229.29l34.96-72.44h93.24l-3.93,72.44h374.48l21.52-74.78h-145.34Z"/>
</svg>