<?xml version="1.0" encoding="UTF-8"?>
<svg id="Layer_1" xmlns="http://www.w3.org/2000/svg" version="1.1" viewBox="0 0 2419.33 562">
  <!-- Generator: Adobe Illustrator 30.0.0, SVG Export Plug-In . SVG Version: 2.1.1 Build 123)  -->
  <defs>
    <style>
      .st0 {
        fill: #ed1b2d;
      }
    </style>
  </defs>
  <path d="M1873.19,11.2l-11.31,69.73h24.36l-30.44,186.74h-24.77l-11.96,73.59h260.58l18.75-115.28h-83.87l-6.48,41.69h-64.98l9.66-58.89h71.6l12.83-79.41h-71.74l7.71-48.43h61.26l-5.34,33.59h81.51l16.71-103.34M1400.04,11.2l-11.16,69.73h24.3l-15.29,94.25-85.35-164h-110.29l-11.1,69.75h24.46l-30.42,186.74h-24.34l-11.76,73.59h137.94l11.78-73.59h-24.46l17.78-111.27,93.31,184.89h73.65l42.16-260.35h24.48l11.27-69.75M764.53,11.2l-11.2,69.73h24.48l-95.22,186.74h-24.15l-12.07,73.59h137.79l12.11-73.59h-24.73l12.27-27.26h85.31l3.45,27.26h-24.4l-11.86,73.59,141.66-.04,11.96-73.55h-24.54L921.91,11.18l-157.38.02ZM854.16,93.22l6.85,77.7h-40.33M556.52,147.49c-15.87,14.6-40.58,8.9-62.14,9.87l11.74-72.26c24.46.56,58.09-6.89,67.16,21.05,2.14,15.93-3.45,30.98-16.75,41.34h0ZM578.39,208.57c16.32-3.84,30.44-13.75,43.74-25.37,30.05-27.55,46.75-67.57,34.7-108.87-11.53-38.73-52.26-60.5-90.04-63.09h-163.57l-11.1,69.71h24.34l-30.24,186.74h-24.63l-11.86,73.59h133.43l12.07-73.59h-18.58l7.03-44.03,65.58,117.65h82.08l12.05-73.59h-30.67M1134.49,341.14l11.8-73.55h-24.46l30.42-186.74h24.36l11.1-69.73h-141.53l-11.31,69.73h24.34l-30.12,186.74h-24.54l-11.84,73.7M2301.16,147.41c-15.87,14.62-40.56,8.94-62.16,9.91l11.76-72.32c24.46.62,58.11-6.85,67.16,21.11,2.12,15.91-3.49,30.96-16.75,41.32v-.02ZM2323.02,208.53c16.34-3.89,30.47-13.77,43.74-25.39,30.07-27.55,46.77-67.59,34.72-108.87-11.55-38.75-52.28-60.5-90.04-63.11h-163.61l-11.06,69.75h24.34l-30.26,186.74h-24.63l-11.84,73.59h133.43l12.05-73.59h-18.58l7.05-44.05,65.58,117.65h82.08l12.05-73.59h-30.71"/>
  <path class="st0" d="M509.15,414.88l-23.78,147.12h1854.77l23.91-147.12H509.15ZM169.35,414.88h-32.97l-23.78,147.12h32.99l23.76-147.12ZM276.12,414.88h-46.42l-23.76,147.12h46.42l23.76-147.12ZM62.54,414.88h-19.51l-23.76,147.12h19.53l23.74-147.12ZM489.71,414.88h-73.28l-23.76,147.12h73.31l23.74-147.12ZM382.91,414.88h-59.86l-23.76,147.12h59.86l23.76-147.12Z"/>
  <path d="M304.98,10.79h68l-18.05,112.03h-77.29c-4.32-18.07-22.78-35.09-40.83-38.98-33.1-7.32-66.99,4.3-88.04,30.96-23.17,32.36-33.49,86.75-11.59,122.07,15.05,23.7,44.01,32.48,71.09,28.16,21.05-3.84,42.29-22.57,51.31-42.39l-86.15-.06,10.77-67.06h181.52l-30.12,185.83h-69.95l4.32-21.03c-8.26,11-30.42,29.7-85.06,29.7-68.99,0-144.39-58.55-144.39-161.84C40.5,103.17,104.62,0,218.4.39c28.98.12,61.51,7.42,82.49,27.55M1774.11,10.79h68l-18.05,112.03h-77.31c-4.28-18.07-22.76-35.09-40.81-38.98-33.1-7.32-66.97,4.3-88.02,30.96-23.19,32.36-33.51,86.75-11.61,122.07,15.05,23.7,44.01,32.48,71.09,28.16,21.07-3.84,42.29-22.57,51.31-42.39l-86.15-.06,10.77-67.06h181.52l-30.12,185.83h-69.93l4.28-21.03c-8.22,11-30.38,29.7-85.04,29.7-68.99,0-144.39-58.55-144.39-161.84C1509.63,103.17,1573.76,0,1687.53.39c28.99.12,61.53,7.42,82.49,27.55"/>
</svg>