<?xml version="1.0" encoding="UTF-8"?>
<svg id="Layer_1" xmlns="http://www.w3.org/2000/svg" version="1.1" viewBox="0 0 2378 527.02">
  <!-- Generator: Adobe Illustrator 30.0.0, SVG Export Plug-In . SVG Version: 2.1.1 Build 123)  -->
  <defs>
    <style>
      .st0 {
        fill: #fff;
      }

      .st1 {
        fill: #ffb30f;
      }

      .st2 {
        fill: #0d2a8a;
      }
    </style>
  </defs>
  <path class="st0" d="M581.88,493.52c-.05-11.04,8.85-20.04,19.9-20.09,11.04-.05,20.04,8.85,20.09,19.9.05,11.04-8.85,20.04-19.9,20.09-.03,0-.06,0-.1,0-10.66.38-19.61-7.96-19.99-18.62-.02-.43-.02-.85,0-1.28ZM601.87,510.13c9.12.27,16.73-6.91,16.99-16.03.27-9.12-6.91-16.73-16.03-16.99s-16.73,6.91-16.99,16.03c0,.13,0,.25,0,.38-.32,8.8,6.55,16.19,15.35,16.51.23,0,.46.01.69.01v.1ZM597.72,505.01h-3.48v-22.89h8.69c5.41,0,8.02,2.03,8.02,6.47.21,3.25-2.25,6.05-5.49,6.27-.13,0-.27.01-.4.01l6.47,9.66h-3.86l-5.99-9.66h-3.96v10.14ZM601.87,492.17c2.9,0,5.51,0,5.51-3.77s-2.61-3.38-4.93-3.38h-4.73v7.05l4.15.1ZM614.53,236.02l-46.55-82-15.55-27.72-47.62-82.29c-9.57-17.78-28.1-28.9-48.29-28.98H181.43c-20.09-.03-38.6,10.89-48.29,28.49l-46.94,82.68-15.65,27.72-46.55,82.1c-9.95,17.46-9.77,38.92.48,56.21l46.36,82.39,15.16,27.72,47.23,82.68c9.73,17.55,28.23,28.42,48.29,28.4h274.88c20.19-.07,38.73-11.19,48.29-28.98l47.71-82.58,14.78-27.24,46.36-82.39c10.32-17.3,10.54-38.8.58-56.31l.39.1Z"/>
  <path class="st1" d="M24,236.02c-9.95,17.46-9.77,38.92.48,56.21l46.36,82.39h28.2v-220.8h-28.98l-46.07,82.19ZM567.97,153.92h-28.98v220.7h28.2l46.36-82.39c10.32-17.3,10.54-38.8.58-56.31l-46.17-82ZM552.52,126.2l-47.71-82.19c-9.57-17.78-28.1-28.9-48.29-28.98H181.43c-20.09-.03-38.6,10.89-48.29,28.49l-46.94,82.68h466.32ZM86.01,402.34l47.23,82.68c9.73,17.55,28.23,28.42,48.29,28.4h274.88c20.19-.07,38.73-11.19,48.29-28.98l47.71-82.58-466.41.48Z"/>
  <path class="st2" d="M125.7,153.83h47.52l16.03,124.31v-124.31h31.78v220.8h-47.52l-16.03-152.8v152.8h-31.78v-220.8ZM312.41,153.83h-57.95l-19.32,220.8h31.39l5.51-51.29h22.89l5.8,51.29h31.97l-20.28-220.8ZM274.45,292.14l8.69-111.65,8.5,111.65h-17.19ZM506.25,153.83h-57.95l-19.32,220.8h31.39l5.51-51.29h22.89l5.8,51.29h32.07l-20.38-220.8ZM468.29,292.14l8.69-111.65,8.5,111.65h-17.19ZM401.55,153.83h-54.96v220.8h31.78v-82.48h23.18c14.3-.05,25.84-11.69,25.79-25.98h0v-86.25c.11-14.3-11.4-25.97-25.69-26.08-.03,0-.06,0-.1,0h0ZM397.21,254.18c0,5.33-4.32,9.66-9.66,9.66h-9.66v-83.35h9.66c5.33,0,9.66,4.32,9.66,9.66v64.04Z"/>
  <path class="st1" d="M1408.36,124.27c-40.18,0-70.51,21.64-91.56,51.96l7.63-48.29h-227.65l-27.33,170.57c-.83,8.09-2.68,16.04-5.51,23.66-2.83,8.14-10.71,13.42-19.32,12.94-7.41.21-13.59-5.62-13.81-13.03,0-.07,0-.13,0-.2-.43-7.94.22-15.9,1.93-23.66l27.04-169.99h-73.12l-28.3,176.56c0,2.41-.77,5.12-1.06,7.82l-9.66-184.58h-89.63l-107.31,270.54h75.34l11.59-34.77h48.29v34.77h75.63l-2.22-40.76c7.15,24.24,26.85,45.4,74.85,45.4,84.61,0,102.19-65.58,107.31-98.23l17.58-110.78h39.41l-32.45,204.38h73.12l33.13-204.38h33.9c-11.38,21.91-19.11,45.53-22.89,69.93-10.43,65.97,6.86,139.86,81.13,139.86s114.94-73.89,125.56-139.86-7.44-139.86-81.61-139.86h0ZM888.83,243.65l-2.03,62.78h-30.81l20.28-62.78c5.51-16.81,9.66-34.09,14.87-50.9h.68c-1.16,16.9-2.41,34.09-2.99,50.9ZM1414.83,264.03c-2.7,16.9-12.46,71.67-40.08,71.67s-19.99-54.86-17.29-71.67,12.46-71.67,40.08-71.67,19.61,54.47,17.39,71.76l-.1-.1ZM2308.74,190.92c16.81,0,31.97,15.45,38.63,28.98l13.04-82.1c-15.17-8.74-32.33-13.43-49.84-13.62-33.77.21-64.78,18.69-81.04,48.29l7.05-44.24h-155.6l-5.89,37.38c-13.33-28.98-47.23-37.38-90.79-37.38h-70.7l-39.31,248.32-13.33-248.32h-89.34l-37.38,93.78v-2.03c11.2-70.99-34.58-91.76-98.42-91.76h-66.74l-42.79,270.44h73.12l14-88.57c43.17,1.26,78.52-8.4,100.16-37.09l-50.03,125.56h75.34l11.59-34.77h49.16v34.77h144.11l11.4-72.05c2.12-13.23,3.48-26.56,5.22-39.79l.87-.68,22.7,112.62h79.2l-36.7-112.62c28.71-11.05,48.97-37.06,52.64-67.61,1.32-7.95,1.9-16,1.74-24.05h29.56l-32.36,204.38h73.21l32.36-204.38h35.25c-2.33,6.26-4.04,12.73-5.12,19.32-3.17,16.14-.61,32.88,7.24,47.33,8.31,13,18.72,24.52,30.81,34.09,4.05,2.88,7.61,6.41,10.53,10.43,3.25,4.3,4.48,9.79,3.38,15.07-2.83,11-12.99,18.51-24.34,17.96-18.64,0-33.81-15.07-41.53-30.13l-13.43,84.61c16.74,7.35,34.84,11.14,53.12,11.11,51.03-1.52,93.48-39.72,100.35-90.31,3.57-15.85,1.52-32.44-5.8-46.94-7.74-13.04-18.18-24.27-30.62-32.94-4.13-3.38-7.98-7.09-11.49-11.11-3.69-4.1-5.44-9.59-4.83-15.07,2.42-9.97,11.38-16.97,21.64-16.9h0ZM1661.03,218.93c-1.73,18.43-18.08,31.96-36.51,30.23-.29-.03-.58-.06-.87-.09l9.66-62.39h5.41c18.06-.39,24.92,15.07,22.21,32.26h.1ZM1802.63,243.65l-2.03,62.78h-30.81l19.99-62.78c5.51-16.81,9.66-34.09,14.87-50.9h.68c-1.06,16.9-1.84,34.09-2.8,50.9h.1ZM2007,218.93c-1.71,18.56-16.65,33.14-35.25,34.38h-4.64l10.24-67.03c20.48-1.06,33.23,8.98,29.46,32.65h.19Z"/>
</svg>